# xmcd
#
# Track frame offsets:
#	182
#	12527
#	31950
#	50837
#	63450
#	79022
#	92377
#	107125
#	123957
#	142395
#	155502
#	173242
#	192945
#	203112
#	216537
#	228085
#	238995
#	255125
#
# Disc length: 3543 seconds
#
# Revision: 0
# Processed by: cddbd v1.5.1PL0 Copyright (c) Steve Scherf et al.
# Submitted via: dBpowerAMP V4.0
#
DISCID=000dd512
DTITLE=Various Artist - 18 Classic Country Hits  Country Legends
DYEAR=1900
DGENRE=Country
TTITLE0=Crazy - Patsy Cline
TTITLE1=Coward Of The County - Kenny Rogers
TTITLE2=From A Distance - Nanci Griffith
TTITLE3=You're My Best Friend - Don Williams
TTITLE4=Mama, Don't Let Your Babies Grow Up To Be Cowboys - Willie Nelson
TTITLE5=DIVORCE - Tammy Wynette
TTITLE6=The Last One To Know - Reba McEntire
TTITLE7=A Boy Named Sue - Johhny Cash
TTITLE8=She's In Love With The Boy - Trisha Yearwood
TTITLE9=Talking In Your Sleep - Crystal Gayle
TTITLE10=Wind Beneath My Wings - Lee Greenwood
TTITLE11=El Paso - Marty Robbins
TTITLE12=Brand New Heartache - Everly Brothers
TTITLE13=Coal Miner's Daughter - Loretta Lynn
TTITLE14=The Most Beautiful Girl In The World - Charlie Rich
TTITLE15=It's Only Make Beleive - Glen Campbell
TTITLE16=Blanket On The Ground - Billie Jo Spears
TTITLE17=Help Me Make It Through The Night - Kris Kristofferson
EXTD=
EXTT0=
EXTT1=
EXTT2=
EXTT3=
EXTT4=
EXTT5=
EXTT6=
EXTT7=
EXTT8=
EXTT9=
EXTT10=
EXTT11=
EXTT12=
EXTT13=
EXTT14=
EXTT15=
EXTT16=
EXTT17=
PLAYORDER=
